<?xml version="1.0" encoding="utf-8"?>
<!-- Generator: Adobe Illustrator 18.0.0, SVG Export Plug-In . SVG Version: 6.00 Build 0)  -->
<!DOCTYPE svg PUBLIC "-//W3C//DTD SVG 1.1//EN" "http://www.w3.org/Graphics/SVG/1.1/DTD/svg11.dtd">
<svg version="1.1" id="Layer_1" xmlns="http://www.w3.org/2000/svg" xmlns:xlink="http://www.w3.org/1999/xlink" x="0px" y="0px"
	 viewBox="206.6 23.8 21.6 21.6" enable-background="new 206.6 23.8 21.6 21.6" xml:space="preserve">
<path fill="#888888" d="M228.2,35.9v-2.6l-3.1-0.6c-0.2-0.7-0.5-1.5-0.9-2.1l1.7-2.7l-1.8-1.8l-2.7,1.7c-0.6-0.4-1.4-0.7-2.1-0.9
	l-0.6-3.1h-2.6l-0.6,3.1c-0.7,0.2-1.5,0.5-2.1,0.9l-2.7-1.7l-1.8,1.8l1.7,2.7c-0.4,0.6-0.7,1.4-0.9,2.1l-3.1,0.6v2.6l3.1,0.6
	c0.2,0.7,0.5,1.5,0.9,2.1l-1.7,2.7l1.8,1.8l2.7-1.7c0.6,0.4,1.4,0.7,2.1,0.9l0.6,3.1h2.6l0.6-3.1c0.7-0.2,1.5-0.5,2.1-0.9l2.7,1.7
	l1.8-1.8l-1.7-2.7c0.4-0.6,0.7-1.4,0.9-2.1L228.2,35.9z M217.4,38.2c-2,0-3.6-1.6-3.6-3.6s1.6-3.6,3.6-3.6c2,0,3.6,1.6,3.6,3.6
	C221,36.6,219.4,38.2,217.4,38.2z"/>
</svg>
